# xmcd CD database file
#
# Track frame offsets:
#	150
#	10574
#	34044
#	45666
#	60654
#	87538
#	106115
#	122871
#
# Disc length: 1799 seconds
#
# Revision: 0
# Processed by: cddbd v1.4PL0 Copyright (c) Steve Scherf et al.
# Submitted via: CDex 1.51
#
DISCID=5c070508
DTITLE=Bufo Bufo - Steppin' Out - Live
DYEAR=2001
DGENRE=Blues
TTITLE0=The Crawl
TTITLE1=Serves Me Right
TTITLE2=Lookin' Back
TTITLE3=Dust My Broom
TTITLE4=Hurts Me Too
TTITLE5=Bullfrog Blues
TTITLE6=Johnny B Goode
TTITLE7=Steppin' Out
EXTD=YEAR: 2001
EXTT0=
EXTT1=
EXTT2=
EXTT3=
EXTT4=
EXTT5=
EXTT6=
EXTT7=
PLAYORDER=
